<svg width="982" height="722" viewBox="0 0 982 722" fill="none" xmlns="http://www.w3.org/2000/svg">
<rect width="982" height="722" fill="#36393F"/>
<g clip-path="url(#clip0_14_2)">
<circle cx="111" cy="36" r="20" fill="white" fill-opacity="0.08"/>
<g clip-path="url(#clip1_14_2)">
<rect x="147" y="16" width="120" height="16" rx="8" fill="white" fill-opacity="0.16"/>
<g clip-path="url(#clip2_14_2)">
<rect x="147" y="38" width="44" height="16" rx="8" fill="white" fill-opacity="0.05"/>
<rect x="195" y="38" width="56" height="16" rx="8" fill="white" fill-opacity="0.05"/>
<rect x="255" y="38" width="79" height="16" rx="8" fill="white" fill-opacity="0.05"/>
<rect x="338" y="38" width="31" height="16" rx="8" fill="white" fill-opacity="0.05"/>
<rect x="373" y="38" width="35" height="16" rx="8" fill="white" fill-opacity="0.05"/>
</g>
<g clip-path="url(#clip3_14_2)">
<rect x="147" y="60" width="44" height="16" rx="8" fill="white" fill-opacity="0.05"/>
<rect x="195" y="60" width="77" height="16" rx="8" fill="white" fill-opacity="0.05"/>
<rect x="276" y="60" width="71" height="16" rx="8" fill="white" fill-opacity="0.05"/>
<rect x="351" y="60" width="33" height="16" rx="8" fill="white" fill-opacity="0.05"/>
</g>
<g clip-path="url(#clip4_14_2)">
<rect x="147" y="82" width="45" height="16" rx="8" fill="white" fill-opacity="0.05"/>
<rect x="196" y="82" width="46" height="16" rx="8" fill="white" fill-opacity="0.05"/>
<rect x="246" y="82" width="61" height="16" rx="8" fill="white" fill-opacity="0.05"/>
</g>
<g clip-path="url(#clip5_14_2)">
<rect x="147" y="104" width="39" height="16" rx="8" fill="white" fill-opacity="0.05"/>
<rect x="190" y="104" width="32" height="16" rx="8" fill="white" fill-opacity="0.05"/>
<rect x="226" y="104" width="75" height="16" rx="8" fill="white" fill-opacity="0.05"/>
</g>
</g>
</g>
<g clip-path="url(#clip6_14_2)">
<circle cx="111" cy="164" r="20" fill="white" fill-opacity="0.08"/>
<g clip-path="url(#clip7_14_2)">
<rect x="147" y="144" width="112" height="16" rx="8" fill="white" fill-opacity="0.16"/>
<g clip-path="url(#clip8_14_2)">
<rect x="147" y="166" width="56" height="16" rx="8" fill="white" fill-opacity="0.05"/>
<rect x="207" y="166" width="37" height="16" rx="8" fill="white" fill-opacity="0.05"/>
<rect x="248" y="166" width="48" height="16" rx="8" fill="white" fill-opacity="0.05"/>
<rect x="300" y="166" width="53" height="16" rx="8" fill="white" fill-opacity="0.05"/>
<rect x="357" y="166" width="24" height="16" rx="8" fill="white" fill-opacity="0.05"/>
<rect x="385" y="166" width="30" height="16" rx="8" fill="white" fill-opacity="0.05"/>
</g>
<g clip-path="url(#clip9_14_2)">
<rect x="147" y="188" width="36" height="16" rx="8" fill="white" fill-opacity="0.05"/>
<rect x="187" y="188" width="37" height="16" rx="8" fill="white" fill-opacity="0.05"/>
<rect x="228" y="188" width="79" height="16" rx="8" fill="white" fill-opacity="0.05"/>
</g>
<g clip-path="url(#clip10_14_2)">
<rect x="147" y="210" width="31" height="16" rx="8" fill="white" fill-opacity="0.05"/>
<rect x="182" y="210" width="30" height="16" rx="8" fill="white" fill-opacity="0.05"/>
<rect x="216" y="210" width="73" height="16" rx="8" fill="white" fill-opacity="0.05"/>
</g>
</g>
</g>
<g clip-path="url(#clip11_14_2)">
<circle cx="112" cy="279" r="20" fill="white" fill-opacity="0.08"/>
<g clip-path="url(#clip12_14_2)">
<rect x="148" y="259" width="120" height="16" rx="8" fill="white" fill-opacity="0.16"/>
<g clip-path="url(#clip13_14_2)">
<rect x="148" y="281" width="44" height="16" rx="8" fill="white" fill-opacity="0.05"/>
<rect x="196" y="281" width="56" height="16" rx="8" fill="white" fill-opacity="0.05"/>
<rect x="256" y="281" width="79" height="16" rx="8" fill="white" fill-opacity="0.05"/>
<rect x="339" y="281" width="31" height="16" rx="8" fill="white" fill-opacity="0.05"/>
<rect x="374" y="281" width="35" height="16" rx="8" fill="white" fill-opacity="0.05"/>
</g>
<g clip-path="url(#clip14_14_2)">
<rect x="148" y="303" width="44" height="16" rx="8" fill="white" fill-opacity="0.05"/>
<rect x="196" y="303" width="77" height="16" rx="8" fill="white" fill-opacity="0.05"/>
<rect x="277" y="303" width="71" height="16" rx="8" fill="white" fill-opacity="0.05"/>
<rect x="352" y="303" width="33" height="16" rx="8" fill="white" fill-opacity="0.05"/>
</g>
<g clip-path="url(#clip15_14_2)">
<rect x="148" y="325" width="45" height="16" rx="8" fill="white" fill-opacity="0.05"/>
<rect x="197" y="325" width="46" height="16" rx="8" fill="white" fill-opacity="0.05"/>
<rect x="247" y="325" width="61" height="16" rx="8" fill="white" fill-opacity="0.05"/>
</g>
<g clip-path="url(#clip16_14_2)">
<rect x="148" y="347" width="39" height="16" rx="8" fill="white" fill-opacity="0.05"/>
<rect x="191" y="347" width="32" height="16" rx="8" fill="white" fill-opacity="0.05"/>
<rect x="227" y="347" width="75" height="16" rx="8" fill="white" fill-opacity="0.05"/>
</g>
</g>
</g>
<g clip-path="url(#clip17_14_2)">
<circle cx="112" cy="407" r="20" fill="white" fill-opacity="0.08"/>
<g clip-path="url(#clip18_14_2)">
<rect x="148" y="387" width="112" height="16" rx="8" fill="white" fill-opacity="0.16"/>
<g clip-path="url(#clip19_14_2)">
<rect x="148" y="409" width="56" height="16" rx="8" fill="white" fill-opacity="0.05"/>
<rect x="208" y="409" width="37" height="16" rx="8" fill="white" fill-opacity="0.05"/>
<rect x="249" y="409" width="48" height="16" rx="8" fill="white" fill-opacity="0.05"/>
<rect x="301" y="409" width="53" height="16" rx="8" fill="white" fill-opacity="0.05"/>
<rect x="358" y="409" width="24" height="16" rx="8" fill="white" fill-opacity="0.05"/>
<rect x="386" y="409" width="30" height="16" rx="8" fill="white" fill-opacity="0.05"/>
</g>
<g clip-path="url(#clip20_14_2)">
<rect x="148" y="431" width="36" height="16" rx="8" fill="white" fill-opacity="0.05"/>
<rect x="188" y="431" width="37" height="16" rx="8" fill="white" fill-opacity="0.05"/>
<rect x="229" y="431" width="79" height="16" rx="8" fill="white" fill-opacity="0.05"/>
</g>
<g clip-path="url(#clip21_14_2)">
<rect x="148" y="453" width="31" height="16" rx="8" fill="white" fill-opacity="0.05"/>
<rect x="183" y="453" width="30" height="16" rx="8" fill="white" fill-opacity="0.05"/>
<rect x="217" y="453" width="73" height="16" rx="8" fill="white" fill-opacity="0.05"/>
</g>
</g>
</g>
<g clip-path="url(#clip22_14_2)">
<rect x="14" width="48" height="48" rx="24" fill="#AD94BF"/>
<rect x="14" y="56" width="48" height="48" rx="24" fill="#8EC0A7"/>
<rect x="14" y="112" width="48" height="48" rx="24" fill="#C05C8C"/>
<rect x="14" y="168" width="48" height="48" rx="24" fill="#45A447"/>
</g>
<g clip-path="url(#clip23_14_2)">
<rect x="14" y="226" width="48" height="48" rx="24" fill="#AD94BF"/>
<rect x="14" y="282" width="48" height="48" rx="24" fill="#8EC0A7"/>
<rect x="14" y="338" width="48" height="48" rx="24" fill="#C05C8C"/>
<rect x="14" y="394" width="48" height="48" rx="24" fill="#45A447"/>
</g>
<g clip-path="url(#clip24_14_2)">
<rect x="14" y="450" width="48" height="48" rx="24" fill="#AD94BF"/>
<rect x="14" y="506" width="48" height="48" rx="24" fill="#AD94BF"/>
<rect x="14" y="562" width="48" height="48" rx="24" fill="#8EC0A7"/>
<rect x="14" y="618" width="48" height="48" rx="24" fill="#C05C8C"/>
<rect x="14" y="674" width="48" height="48" rx="24" fill="#45A447"/>
</g>
<g clip-path="url(#clip25_14_2)">
<circle cx="108" cy="516" r="20" fill="white" fill-opacity="0.08"/>
<g clip-path="url(#clip26_14_2)">
<rect x="144" y="496" width="120" height="16" rx="8" fill="white" fill-opacity="0.16"/>
<g clip-path="url(#clip27_14_2)">
<rect x="144" y="518" width="44" height="16" rx="8" fill="white" fill-opacity="0.05"/>
<rect x="192" y="518" width="56" height="16" rx="8" fill="white" fill-opacity="0.05"/>
<rect x="252" y="518" width="79" height="16" rx="8" fill="white" fill-opacity="0.05"/>
<rect x="335" y="518" width="31" height="16" rx="8" fill="white" fill-opacity="0.05"/>
<rect x="370" y="518" width="35" height="16" rx="8" fill="white" fill-opacity="0.05"/>
</g>
<g clip-path="url(#clip28_14_2)">
<rect x="144" y="540" width="44" height="16" rx="8" fill="white" fill-opacity="0.05"/>
<rect x="192" y="540" width="77" height="16" rx="8" fill="white" fill-opacity="0.05"/>
<rect x="273" y="540" width="71" height="16" rx="8" fill="white" fill-opacity="0.05"/>
<rect x="348" y="540" width="33" height="16" rx="8" fill="white" fill-opacity="0.05"/>
</g>
<g clip-path="url(#clip29_14_2)">
<rect x="144" y="562" width="45" height="16" rx="8" fill="white" fill-opacity="0.05"/>
<rect x="193" y="562" width="46" height="16" rx="8" fill="white" fill-opacity="0.05"/>
<rect x="243" y="562" width="61" height="16" rx="8" fill="white" fill-opacity="0.05"/>
</g>
<g clip-path="url(#clip30_14_2)">
<rect x="144" y="584" width="39" height="16" rx="8" fill="white" fill-opacity="0.05"/>
<rect x="187" y="584" width="32" height="16" rx="8" fill="white" fill-opacity="0.05"/>
<rect x="223" y="584" width="75" height="16" rx="8" fill="white" fill-opacity="0.05"/>
</g>
</g>
</g>
<g clip-path="url(#clip31_14_2)">
<circle cx="108" cy="644" r="20" fill="white" fill-opacity="0.08"/>
<g clip-path="url(#clip32_14_2)">
<rect x="144" y="624" width="112" height="16" rx="8" fill="white" fill-opacity="0.16"/>
<g clip-path="url(#clip33_14_2)">
<rect x="144" y="646" width="56" height="16" rx="8" fill="white" fill-opacity="0.05"/>
<rect x="204" y="646" width="37" height="16" rx="8" fill="white" fill-opacity="0.05"/>
<rect x="245" y="646" width="48" height="16" rx="8" fill="white" fill-opacity="0.05"/>
<rect x="297" y="646" width="53" height="16" rx="8" fill="white" fill-opacity="0.05"/>
<rect x="354" y="646" width="24" height="16" rx="8" fill="white" fill-opacity="0.05"/>
<rect x="382" y="646" width="30" height="16" rx="8" fill="white" fill-opacity="0.05"/>
</g>
<g clip-path="url(#clip34_14_2)">
<rect x="144" y="668" width="36" height="16" rx="8" fill="white" fill-opacity="0.05"/>
<rect x="184" y="668" width="37" height="16" rx="8" fill="white" fill-opacity="0.05"/>
<rect x="225" y="668" width="79" height="16" rx="8" fill="white" fill-opacity="0.05"/>
</g>
<g clip-path="url(#clip35_14_2)">
<rect x="144" y="690" width="31" height="16" rx="8" fill="white" fill-opacity="0.05"/>
<rect x="179" y="690" width="30" height="16" rx="8" fill="white" fill-opacity="0.05"/>
<rect x="213" y="690" width="73" height="16" rx="8" fill="white" fill-opacity="0.05"/>
</g>
</g>
</g>
<defs>
<clipPath id="clip0_14_2">
<rect width="317" height="104" fill="white" transform="translate(91 16)"/>
</clipPath>
<clipPath id="clip1_14_2">
<rect width="261" height="104" fill="white" transform="translate(147 16)"/>
</clipPath>
<clipPath id="clip2_14_2">
<rect width="261" height="16" fill="white" transform="translate(147 38)"/>
</clipPath>
<clipPath id="clip3_14_2">
<rect width="237" height="16" fill="white" transform="translate(147 60)"/>
</clipPath>
<clipPath id="clip4_14_2">
<rect width="160" height="16" fill="white" transform="translate(147 82)"/>
</clipPath>
<clipPath id="clip5_14_2">
<rect width="154" height="16" fill="white" transform="translate(147 104)"/>
</clipPath>
<clipPath id="clip6_14_2">
<rect width="324" height="82" fill="white" transform="translate(91 144)"/>
</clipPath>
<clipPath id="clip7_14_2">
<rect width="268" height="82" fill="white" transform="translate(147 144)"/>
</clipPath>
<clipPath id="clip8_14_2">
<rect width="268" height="16" fill="white" transform="translate(147 166)"/>
</clipPath>
<clipPath id="clip9_14_2">
<rect width="160" height="16" fill="white" transform="translate(147 188)"/>
</clipPath>
<clipPath id="clip10_14_2">
<rect width="142" height="16" fill="white" transform="translate(147 210)"/>
</clipPath>
<clipPath id="clip11_14_2">
<rect width="317" height="104" fill="white" transform="translate(92 259)"/>
</clipPath>
<clipPath id="clip12_14_2">
<rect width="261" height="104" fill="white" transform="translate(148 259)"/>
</clipPath>
<clipPath id="clip13_14_2">
<rect width="261" height="16" fill="white" transform="translate(148 281)"/>
</clipPath>
<clipPath id="clip14_14_2">
<rect width="237" height="16" fill="white" transform="translate(148 303)"/>
</clipPath>
<clipPath id="clip15_14_2">
<rect width="160" height="16" fill="white" transform="translate(148 325)"/>
</clipPath>
<clipPath id="clip16_14_2">
<rect width="154" height="16" fill="white" transform="translate(148 347)"/>
</clipPath>
<clipPath id="clip17_14_2">
<rect width="324" height="82" fill="white" transform="translate(92 387)"/>
</clipPath>
<clipPath id="clip18_14_2">
<rect width="268" height="82" fill="white" transform="translate(148 387)"/>
</clipPath>
<clipPath id="clip19_14_2">
<rect width="268" height="16" fill="white" transform="translate(148 409)"/>
</clipPath>
<clipPath id="clip20_14_2">
<rect width="160" height="16" fill="white" transform="translate(148 431)"/>
</clipPath>
<clipPath id="clip21_14_2">
<rect width="142" height="16" fill="white" transform="translate(148 453)"/>
</clipPath>
<clipPath id="clip22_14_2">
<rect width="48" height="216" fill="white" transform="translate(14)"/>
</clipPath>
<clipPath id="clip23_14_2">
<rect width="48" height="216" fill="white" transform="translate(14 226)"/>
</clipPath>
<clipPath id="clip24_14_2">
<rect width="48" height="272" fill="white" transform="translate(14 450)"/>
</clipPath>
<clipPath id="clip25_14_2">
<rect width="317" height="104" fill="white" transform="translate(88 496)"/>
</clipPath>
<clipPath id="clip26_14_2">
<rect width="261" height="104" fill="white" transform="translate(144 496)"/>
</clipPath>
<clipPath id="clip27_14_2">
<rect width="261" height="16" fill="white" transform="translate(144 518)"/>
</clipPath>
<clipPath id="clip28_14_2">
<rect width="237" height="16" fill="white" transform="translate(144 540)"/>
</clipPath>
<clipPath id="clip29_14_2">
<rect width="160" height="16" fill="white" transform="translate(144 562)"/>
</clipPath>
<clipPath id="clip30_14_2">
<rect width="154" height="16" fill="white" transform="translate(144 584)"/>
</clipPath>
<clipPath id="clip31_14_2">
<rect width="324" height="82" fill="white" transform="translate(88 624)"/>
</clipPath>
<clipPath id="clip32_14_2">
<rect width="268" height="82" fill="white" transform="translate(144 624)"/>
</clipPath>
<clipPath id="clip33_14_2">
<rect width="268" height="16" fill="white" transform="translate(144 646)"/>
</clipPath>
<clipPath id="clip34_14_2">
<rect width="160" height="16" fill="white" transform="translate(144 668)"/>
</clipPath>
<clipPath id="clip35_14_2">
<rect width="142" height="16" fill="white" transform="translate(144 690)"/>
</clipPath>
</defs>
</svg>
