<svg width="33" height="33" viewBox="0 0 33 33" fill="none" xmlns="http://www.w3.org/2000/svg">
<path fill-rule="evenodd" clip-rule="evenodd" d="M32.7326 16.2326L16.5531 0L0.269546 16.2304C-0.0890173 16.5878 -0.0899709 17.1683 0.267428 17.5269C0.624828 17.8854 1.20522 17.8864 1.56379 17.529L3.66667 15.4329V32.0046C3.66667 32.5109 4.07706 32.9213 4.58334 32.9213H12.8333C13.3396 32.9213 13.75 32.5109 13.75 32.0046V23.9922C13.75 23.486 14.1604 23.0755 14.6667 23.0755H18.3333C18.8396 23.0755 19.25 23.486 19.25 23.9922V32.0046C19.25 32.5109 19.6604 32.9213 20.1667 32.9213H28.4167C28.923 32.9213 29.3334 32.5109 29.3334 32.0046V15.4192L31.4341 17.5269C31.7915 17.8854 32.3719 17.8864 32.7304 17.529C33.089 17.1716 33.0899 16.5911 32.7326 16.2326ZM27.5 13.5798L16.5489 2.59273L5.5 13.6055V31.0879H11.9167V23.9922C11.9167 22.4735 13.1478 21.2422 14.6667 21.2422H18.3333C19.8522 21.2422 21.0833 22.4735 21.0833 23.9922V31.0879H27.5V13.5798Z" fill="white"/>
</svg>
